
  <svg width="400" height="460" viewBox="0 0 400 460" xmlns="http://www.w3.org/2000/svg" role="img">
    <title>Most Used Languages</title>
    <style>
      .header { font: 600 18px 'Segoe UI', Ubuntu, Sans-Serif; fill: #7aa2f7; }
      .lang-name { font: 600 14px 'Segoe UI', Ubuntu, Sans-Serif; fill: #a9b1d6; }
      .lang-percent { font: 400 14px 'Segoe UI', Ubuntu, Sans-Serif; fill: #565f89; }
      .bg { fill: #1a1b26; stroke: #414868; stroke-width: 1px; rx: 10px; }
    </style>
    <rect x="1" y="1" width="398" height="458" class="bg"/>
    <text x="200" y="30" class="header" text-anchor="middle">Top Languages</text>
    
    <g transform="translate(25, 50)">
      <text x="0" y="0" class="lang-name">TypeScript</text>
      <text x="340" y="0" class="lang-percent" text-anchor="end">59.4%</text>
      
      <rect x="0" y="8" width="340" height="8" rx="4" fill="#24283b" />
      
      <rect x="0" y="8" width="505.14601317413087" height="8" rx="4" fill="#3178c6" />
    </g>
    
    <g transform="translate(25, 90)">
      <text x="0" y="0" class="lang-name">JavaScript</text>
      <text x="340" y="0" class="lang-percent" text-anchor="end">24.1%</text>
      
      <rect x="0" y="8" width="340" height="8" rx="4" fill="#24283b" />
      
      <rect x="0" y="8" width="204.92577680808847" height="8" rx="4" fill="#f1e05a" />
    </g>
    
    <g transform="translate(25, 130)">
      <text x="0" y="0" class="lang-name">Yacc</text>
      <text x="340" y="0" class="lang-percent" text-anchor="end">7.4%</text>
      
      <rect x="0" y="8" width="340" height="8" rx="4" fill="#24283b" />
      
      <rect x="0" y="8" width="62.80036918652246" height="8" rx="4" fill="#4B6C4B" />
    </g>
    
    <g transform="translate(25, 170)">
      <text x="0" y="0" class="lang-name">HTML</text>
      <text x="340" y="0" class="lang-percent" text-anchor="end">1.8%</text>
      
      <rect x="0" y="8" width="340" height="8" rx="4" fill="#24283b" />
      
      <rect x="0" y="8" width="14.954459614061248" height="8" rx="4" fill="#e34c26" />
    </g>
    
    <g transform="translate(25, 210)">
      <text x="0" y="0" class="lang-name">Python</text>
      <text x="340" y="0" class="lang-percent" text-anchor="end">1.8%</text>
      
      <rect x="0" y="8" width="340" height="8" rx="4" fill="#24283b" />
      
      <rect x="0" y="8" width="14.905652167347286" height="8" rx="4" fill="#3572A5" />
    </g>
    
    <g transform="translate(25, 250)">
      <text x="0" y="0" class="lang-name">CSS</text>
      <text x="340" y="0" class="lang-percent" text-anchor="end">1.3%</text>
      
      <rect x="0" y="8" width="340" height="8" rx="4" fill="#24283b" />
      
      <rect x="0" y="8" width="11.020589555994293" height="8" rx="4" fill="#663399" />
    </g>
    
    <g transform="translate(25, 290)">
      <text x="0" y="0" class="lang-name">Kotlin</text>
      <text x="340" y="0" class="lang-percent" text-anchor="end">1.1%</text>
      
      <rect x="0" y="8" width="340" height="8" rx="4" fill="#24283b" />
      
      <rect x="0" y="8" width="8.981990786333508" height="8" rx="4" fill="#A97BFF" />
    </g>
    
    <g transform="translate(25, 330)">
      <text x="0" y="0" class="lang-name">EJS</text>
      <text x="340" y="0" class="lang-percent" text-anchor="end">1.0%</text>
      
      <rect x="0" y="8" width="340" height="8" rx="4" fill="#24283b" />
      
      <rect x="0" y="8" width="8.556929675554333" height="8" rx="4" fill="#a91e50" />
    </g>
    
    <g transform="translate(25, 370)">
      <text x="0" y="0" class="lang-name">Rust</text>
      <text x="340" y="0" class="lang-percent" text-anchor="end">0.6%</text>
      
      <rect x="0" y="8" width="340" height="8" rx="4" fill="#24283b" />
      
      <rect x="0" y="8" width="6.8" height="8" rx="4" fill="#dea584" />
    </g>
    
    <g transform="translate(25, 410)">
      <text x="0" y="0" class="lang-name">Game Maker Language</text>
      <text x="340" y="0" class="lang-percent" text-anchor="end">0.4%</text>
      
      <rect x="0" y="8" width="340" height="8" rx="4" fill="#24283b" />
      
      <rect x="0" y="8" width="6.8" height="8" rx="4" fill="#71b417" />
    </g>
    
  </svg>
  